{"title":"Riddick.2013.CAM.XviD.AC3 - BiTo","uid":8895438,"size":1302505983,"categoryP":"video","categoryS":"movies","magnet":"?xt=urn:btih:462096594e560b8413b197d24358c5b5ebd2a2e8&amp;dn=Riddick.2013.CAM.XviD.AC3+-+BiTo&amp;tr=udp%3A%2F%2Ftracker.openbittorrent.com%3A80&amp;tr=udp%3A%2F%2Fopen.demonii.com%3A1337&amp;tr=udp%3A%2F%2Ftracker.coppersurfer.tk%3A6969&amp;tr=udp%3A%2F%2Fexodus.desync.com%3A6969","seeders":4,"leechers":0,"uploader":"xxxlavalxxx","files":3,"time":1378690315,"description":" &lt;a href=&quot;\nhttp://www.imdb.com/title/tt1411250/&quot; rel=&quot;nofollow&quot; target=&quot;_NEW&quot;&gt;\nhttp://www.imdb.com/title/tt1411250/&lt;/a&gt;\n\n\n\nLeft for dead on a sun-scorched planet, Riddick finds himself up against an alien race of predators. Activating an emergency beacon alerts two ships: one carrying a new breed of mercenary, the other captained by a man from Riddick's past. \n\n\n\nDirector:\n David Twohy \n\nWriters:\n David Twohy, Jim Wheat (based on characters created by)\n\nStars:\n Vin Diesel, Karl Urban, Katee Sackhoff \n\nGenres:\n  Action |  Sci-Fi |  Thriller \n\nCountry:\n USA | UK \n\nLanguage:\n English \n\n\n\nSource: MAXP THx\n sample: Yes\n Audio: AC3 @ 2 CH\n Codec: XviD\n Container: AVI\n\n Video\n ID                                       : 0\n Format                                   : MPEG-4 Visual\n Format profile                           : Advanced Simple@L5\n Format settings, BVOP                    : 1\n Format settings, QPel                    : No\n Format settings, GMC                     : No warppoints\n Format settings, Matrix                  : Default (MPEG)\n Codec ID                                 : XVID\n Codec ID/Hint                            : XviD\n Duration                                 : 1h 51mn\n Bit rate                                 : 1 399 Kbps\n Width                                    : 720 pixels\n Height                                   : 400 pixels\n Display aspect ratio                     : 16:9\n Frame rate                               : 29.970 fps\n Color space                              : YUV\n Chroma subsampling                       : 4:2:0\n Bit depth                                : 8 bits\n Scan type                                : Progressive\n Compression mode                         : Lossy\n Bits/(Pixel*Frame)                       : 0.162\n Stream size                              : 1.09 GiB (91%)\n Writing library                          : XviD 1.2.1 (UTC 2008-12-04)\n\n Audio\n ID                                       : 1\n Format                                   : AC-3\n Format/Info                              : Audio Coding 3\n Mode extension                           : CM (complete main)\n Format settings, Endianness              : Big\n Codec ID                                 : 2000\n Duration                                 : 1h 51mn\n Bit rate mode                            : Constant\n Bit rate                                 : 128 Kbps\n Channel(s)                               : 2 channels\n Channel positions                        : Front: L R\n Sampling rate                            : 48.0 KHz\n Bit depth                                : 16 bits\n Compression mode                         : Lossy\n Stream size                              : 102 MiB (8%)\n Alignment                                : Aligned on interleaves\n Interleave, duration                     : 64 ms (1.92 video frames)\n Interleave, preload duration             : 192 ms\n Title                                    : VTS_01_1 Tc0 L2 2ch 48 224 DELAY 0ms\n\n\n\n","torrent":{"xt":"urn:btih:462096594e560b8413b197d24358c5b5ebd2a2e8","amp;dn":"Riddick.2013.CAM.XviD.AC3+-+BiTo","amp;tr":["udp%3A%2F%2Ftracker.openbittorrent.com%3A80","udp%3A%2F%2Fopen.demonii.com%3A1337","udp%3A%2F%2Ftracker.coppersurfer.tk%3A6969","udp%3A%2F%2Fexodus.desync.com%3A6969"],"infoHash":"462096594e560b8413b197d24358c5b5ebd2a2e8","infoHashBuffer":{"type":"Buffer","data":[70,32,150,89,78,86,11,132,19,177,151,210,67,88,197,181,235,210,162,232]},"announce":[],"urlList":[]}}